# File created by Blade
# Date/Time:  Tue Apr 07 20:57:01 2015
#---------------------------------------------------------
:version 1.10
:name HOM
:units
  mass 1.0
  length 1.000000
  angle deg
:documentation
     Acclaim Skeleton File
:root
   axis xyz
   order TX TY TZ RX RY RZ
   position 0.000000 0.000000 0.000000
   orientation 0 0 0
:bonedata
   begin
      id 1
      name Spine_dum
      direction 0.000000 1.000000 0.000000
      length 4.885285
      axis 0.0 0.0 0.0 xyz
   end
   begin
      id 2
      name LeftUpLeg_dum
      direction 1.000000 0.000000 0.000000
      length 2.672193
      axis 0.0 0.0 0.0 xyz
   end
   begin
      id 3
      name RightUpLeg_dum
      direction -1.000000 0.000000 0.000000
      length 2.672193
      axis 0.0 0.0 0.0 xyz
   end
   begin
      id 4
      name Spine
      direction 0.000000 1.000000 0.000000
      length 0.000000
      axis 0.0 0.0 0.0 xyz
      dof rx ry rz
   end
   begin
      id 5
      name Spine_dum1
      direction 0.000000 1.000000 0.000000
      length 16.494159
      axis 0.0 0.0 0.0 xyz
   end
   begin
      id 6
      name Spine_dum2
      direction 0.000000 1.000000 0.000000
      length 10.663448
      axis 0.0 0.0 0.0 xyz
   end
   begin
      id 7
      name Spine_dum3
      direction 0.000000 1.000000 0.000000
      length 10.663448
      axis 0.0 0.0 0.0 xyz
   end
   begin
      id 8
      name Head
      direction 0.000000 1.000000 0.000000
      length 4.527550
      axis 0.0 0.0 0.0 xyz
      dof rx ry rz
   end
   begin
      id 9
      name LeftShoulder
      direction 1.000000 0.000000 0.000000
      length 7.531907
      axis 0.0 0.0 -90.0 xyz
      dof rx ry rz
   end
   begin
      id 10
      name LeftArm
      direction 1.000000 0.000000 0.000000
      length 10.229199
      axis 0.0 0.0 -90.0 xyz
      dof rx ry rz
   end
   begin
      id 11
      name LeftForeArm
      direction 1.000000 0.000000 0.000000
      length 8.673495
      axis 0.0 0.0 -90.0 xyz
      dof ry rz rx
   end
   begin
      id 12
      name LeftHand
      direction 0.000000 0.000000 0.000000
      length 0.000000
      axis 0.0 0.0 -90.0 xyz
      dof rx ry rz
   end
   begin
      id 13
      name LeftHand_dum1
      direction 0.000000 0.000000 0.000000
      length 0.000000
      axis 0.0 0.0 -90.0 xyz
   end
   begin
      id 14
      name LeftHand_dum2
      direction 1.000000 0.000000 0.000000
      length 3.937000
      axis 0.0 0.0 -90.0 xyz
   end
   begin
      id 15
      name LeftHandThumb1
      direction 0.000000 0.000000 1.000000
      length 3.937000
      axis 0.0 0.0 -90.0 xyz
      dof rx rz ry
   end
   begin
      id 16
      name RightShoulder
      direction -1.000000 0.000000 0.000000
      length 7.531907
      axis 0.0 0.0 90.0 xyz
      dof rx ry rz
   end
   begin
      id 17
      name RightArm
      direction -1.000000 0.000000 0.000000
      length 10.229199
      axis 0.0 0.0 90.0 xyz
      dof rx ry rz
   end
   begin
      id 18
      name RightForeArm
      direction -1.000000 0.000000 0.000000
      length 8.673495
      axis 0.0 0.0 90.0 xyz
      dof ry rz rx
   end
   begin
      id 19
      name RightHand
      direction 0.000000 0.000000 0.000000
      length 0.000000
      axis 0.0 0.0 90.0 xyz
      dof rx ry rz
   end
   begin
      id 20
      name RightHand_dum1
      direction 0.000000 0.000000 0.000000
      length 0.000000
      axis 0.0 0.0 90.0 xyz
   end
   begin
      id 21
      name RightHand_dum2
      direction -1.000000 0.000000 0.000000
      length 3.937000
      axis 0.0 0.0 90.0 xyz
   end
   begin
      id 22
      name RightHandThumb1
      direction 0.000000 0.000000 1.000000
      length 3.937000
      axis 0.0 0.0 90.0 xyz
      dof rx rz ry
   end
   begin
      id 23
      name LeftUpLeg
      direction 0.000000 -1.000000 0.000000
      length 16.263388
      axis 0.0 0.0 0.0 xyz
      dof rx ry rz
   end
   begin
      id 24
      name LeftLeg
      direction 0.000000 -1.000000 0.000000
      length 14.328163
      axis 0.0 0.0 0.0 xyz
      dof rx ry rz
   end
   begin
      id 25
      name LeftFoot
      direction 0.000000 -0.258819 0.965926
      length 5.031290
      axis 15.0 0.0 0.0 xyz
      dof rx ry rz
   end
   begin
      id 26
      name LeftToeBase
      direction 0.000000 0.000000 1.000000
      length 2.952750
      axis 0.0 0.0 0.0 xyz
      dof rx ry rz
   end
   begin
      id 27
      name RightUpLeg
      direction 0.000000 -1.000000 0.000000
      length 16.263388
      axis 0.0 0.0 0.0 xyz
      dof rx ry rz
   end
   begin
      id 28
      name RightLeg
      direction 0.000000 -1.000000 0.000000
      length 14.328163
      axis 0.0 0.0 0.0 xyz
      dof rx ry rz
   end
   begin
      id 29
      name RightFoot
      direction 0.000000 -0.258819 0.965926
      length 5.031290
      axis 15.0 0.0 0.0 xyz
      dof rx ry rz
   end
   begin
      id 30
      name RightToeBase
      direction 0.000000 0.000000 1.000000
      length 2.952750
      axis 0.0 0.0 0.0 xyz
      dof rx ry rz
   end
:hierarchy
   begin
      root Spine_dum LeftUpLeg_dum RightUpLeg_dum
      Spine_dum Spine
      LeftUpLeg_dum LeftUpLeg
      RightUpLeg_dum RightUpLeg
      Spine Spine_dum1 Spine_dum2 Spine_dum3
      Spine_dum1 Head
      Spine_dum2 LeftShoulder
      Spine_dum3 RightShoulder
      LeftShoulder LeftArm
      LeftArm LeftForeArm
      LeftForeArm LeftHand
      LeftHand LeftHand_dum1 LeftHand_dum2
      LeftHand_dum1 LeftHandThumb1
      RightShoulder RightArm
      RightArm RightForeArm
      RightForeArm RightHand
      RightHand RightHand_dum1 RightHand_dum2
      RightHand_dum1 RightHandThumb1
      LeftUpLeg LeftLeg
      LeftLeg LeftFoot
      LeftFoot LeftToeBase
      RightUpLeg RightLeg
      RightLeg RightFoot
      RightFoot RightToeBase
   end

# File created by Blade
# Date/Time:  Tue Apr 07 20:57:09 2015
# Frame Rate: 120.000 fps
#------------------------------------------------------
:FULLY-SPECIFIED
:DEGREES
143
root -0.688675 33.038920 0.152359 14.021234 -26.602940 -7.398274
Spine -4.125143 -6.273078 3.538420
Head 22.456439 -29.236271 6.296760
LeftShoulder -24.555724 49.030033 10.764187
LeftArm 46.420791 -29.012246 -75.711095
LeftForeArm 3.021583 0.000000 1.796716
LeftHand 2.845095 -0.000000 3.734374
LeftHandThumb1 -26.253704 0.000000 33.147579
RightShoulder -8.317783 -0.594478 -21.324625
RightArm 21.341778 0.881734 67.894480
RightForeArm -5.466694 -0.000000 3.840211
RightHand 5.196005 -0.000000 2.221141
RightHandThumb1 -24.326973 -0.000000 -32.862282
LeftUpLeg -2.175490 8.321893 5.811689
LeftLeg -4.856239 -0.000000 0.000000
LeftFoot -7.604340 24.739552 -12.952223
LeftToeBase -9.593642 -0.000000 0.000000
RightUpLeg -22.941823 -4.541036 7.289839
RightLeg 13.369277 -0.000000 -0.000000
RightFoot -4.272386 -24.150102 8.785362
RightToeBase -2.868046 -0.000000 0.000000
144
root -0.767189 33.010260 0.155682 14.146638 -27.585066 -7.194510
Spine -4.150503 -6.258532 3.189025
Head 22.238534 -28.875020 6.539171
LeftShoulder -24.635360 49.212575 10.379241
LeftArm 46.144913 -28.013414 -76.002183
LeftForeArm 2.876622 -0.000000 1.666823
LeftHand 2.631342 -0.000000 3.653986
LeftHandThumb1 -26.253704 0.000000 33.147579
RightShoulder -8.316699 -0.649983 -21.045373
RightArm 21.509809 0.201463 68.883729
RightForeArm -5.637531 -0.000000 3.870094
RightHand 4.976787 0.000000 2.836507
RightHandThumb1 -24.326973 -0.000000 -32.862282
LeftUpLeg -2.143404 8.746847 5.580664
LeftLeg -4.806373 -0.000000 0.000000
LeftFoot -7.878452 25.040734 -13.228397
LeftToeBase -9.698145 -0.000000 0.000000
RightUpLeg -23.720767 -5.105522 7.406340
RightLeg 14.275910 -0.000000 -0.000000
RightFoot -4.245397 -24.526358 9.381547
RightToeBase -2.757555 -0.000000 0.000000
145
root -0.861585 32.981566 0.168446 14.253571 -28.541331 -7.068630
Spine -4.176784 -6.281756 2.919010
Head 22.112252 -28.435246 6.726410
LeftShoulder -24.720911 49.359118 9.995055
LeftArm 45.840700 -26.999550 -76.305192
LeftForeArm 2.685216 -0.000000 1.517116
LeftHand 2.539623 0.000000 3.206303
LeftHandThumb1 -26.253704 0.000000 33.147579
RightShoulder -8.289902 -0.701621 -20.766038
RightArm 21.625327 -0.471862 69.882576
RightForeArm -5.778086 -0.000000 3.861559
RightHand 4.951899 -0.000000 3.333408
RightHandThumb1 -24.326973 -0.000000 -32.862282
LeftUpLeg -2.028440 9.173985 5.454742
LeftLeg -4.765285 -0.000000 0.000000
LeftFoot -8.179733 25.289011 -13.532045
LeftToeBase -9.740880 -0.000000 0.000000
RightUpLeg -24.376490 -5.694249 7.643445
RightLeg 15.130622 -0.000000 -0.000000
RightFoot -4.387379 -24.683883 10.297401
RightToeBase -2.599442 -0.000000 0.000000
146
root -0.960434 32.953789 0.181999 14.395044 -29.524042 -6.952871
Spine -4.260900 -6.284470 2.650126
Head 22.059830 -28.001683 6.876627
LeftShoulder -24.763236 49.493589 9.669905
LeftArm 45.545616 -26.045846 -76.763811
LeftForeArm 2.484148 -0.000000 1.452947
LeftHand 2.477210 -0.000000 3.036258
LeftHandThumb1 -26.253704 0.000000 33.147579
RightShoulder -8.266852 -0.760429 -20.485751
RightArm 21.713317 -1.229875 70.871378
RightForeArm -5.759543 -0.000000 3.818989
RightHand 4.829377 -0.000000 3.726908
RightHandThumb1 -24.326973 -0.000000 -32.862282
LeftUpLeg -1.925270 9.432446 5.351292
LeftLeg -4.726755 -0.000000 0.000000
LeftFoot -8.539877 25.680814 -13.952430
LeftToeBase -9.879229 -0.000000 0.000000
RightUpLeg -25.012861 -6.097930 7.862798
RightLeg 15.983153 -0.000000 -0.000000
RightFoot -5.092947 -24.609000 12.006246
RightToeBase -1.781372 -0.000000 0.000000
147
root -1.057880 32.927489 0.197747 14.456289 -30.506965 -6.775290
Spine -4.302607 -6.284771 2.319398
Head 22.028415 -27.543890 7.012832
LeftShoulder -24.776132 49.591379 9.381855
LeftArm 45.321174 -25.065156 -77.267836
LeftForeArm 2.206102 -0.000000 1.319235
LeftHand 2.451443 -0.000000 3.113234
LeftHandThumb1 -26.253704 0.000000 33.147579
RightShoulder -8.238828 -0.864424 -20.191430
RightArm 21.787524 -1.859130 71.903897
RightForeArm -5.603225 -0.000000 3.787303
RightHand 4.699843 -0.000000 4.021159
RightHandThumb1 -24.326973 -0.000000 -32.862282
LeftUpLeg -1.789485 9.734584 5.207615
LeftLeg -4.642712 -0.000000 0.000000
LeftFoot -8.888939 25.903915 -14.422709
LeftToeBase -9.922423 -0.000000 0.000000
RightUpLeg -25.603451 -6.756108 8.134181
RightLeg 16.879960 -0.000000 -0.000000
RightFoot -5.501428 -23.643928 12.612152
RightToeBase -1.637315 -0.000000 0.000000
148
root -1.164271 32.901003 0.217288 14.528177 -31.488699 -6.672236
Spine -4.336250 -6.290155 2.087140
Head 22.062789 -27.072116 7.065681
LeftShoulder -24.702131 49.795891 9.102804
LeftArm 45.125427 -24.223385 -77.954484
LeftForeArm 2.030528 -0.000000 1.311951
LeftHand 2.450944 -0.000000 2.681693
LeftHandThumb1 -26.253704 0.000000 33.147579
RightShoulder -8.221928 -0.965054 -19.977568
RightArm 21.822256 -2.539713 72.972505
RightForeArm -5.454416 0.000000 3.713529
RightHand 4.713395 -0.000000 4.286607
RightHandThumb1 -24.326973 -0.000000 -32.862282
LeftUpLeg -1.657027 10.162424 5.113665
LeftLeg -4.485881 -0.000000 0.000000
LeftFoot -9.128494 26.120719 -14.580103
LeftToeBase -10.060308 -0.000000 0.000000
RightUpLeg -26.114531 -7.318821 8.532891
RightLeg 17.687548 -0.000000 -0.000000
RightFoot -5.087216 -22.274949 11.377782
RightToeBase -1.826946 -0.000000 0.000000
149
root -1.279655 32.876850 0.240030 14.601180 -32.479391 -6.631592
Spine -4.368031 -6.304293 1.910969
Head 22.152507 -26.567526 7.063511
LeftShoulder -24.850013 49.911718 8.669705
LeftArm 45.032987 -23.236185 -78.490833
LeftForeArm 1.730945 -0.000000 1.175330
LeftHand 2.406603 -0.000000 2.461682
LeftHandThumb1 -26.253704 0.000000 33.147579
RightShoulder -8.160610 -1.098091 -19.761052
RightArm 21.817285 -3.217705 74.035454
RightForeArm -5.063968 0.000000 3.711671
RightHand 4.558489 -0.000000 4.515492
RightHandThumb1 -24.326973 -0.000000 -32.862282
LeftUpLeg -1.494267 10.710715 5.057976
LeftLeg -4.312196 -0.000000 0.000000
LeftFoot -9.468201 26.351193 -14.831551
LeftToeBase -10.055475 -0.000000 0.000000
RightUpLeg -26.491954 -7.677930 8.952996
RightLeg 18.381988 -0.000000 -0.000000
RightFoot -4.692723 -21.139243 10.192138
RightToeBase -1.922403 -0.000000 0.000000
150
root -1.397972 32.855848 0.269572 14.658720 -33.478568 -6.562007
Spine -4.432809 -6.349233 1.724837
Head 22.322363 -26.054673 7.002079
LeftShoulder -24.921900 50.068109 8.259868
LeftArm 44.872626 -22.269603 -79.044930
LeftForeArm 1.403550 -0.000000 1.145759
LeftHand 2.302252 -0.000000 2.028840
LeftHandThumb1 -26.253704 0.000000 33.147579
RightShoulder -8.073654 -1.240241 -19.568163
RightArm 21.764410 -3.794982 75.137239
RightForeArm -4.579385 -0.000000 3.663284
RightHand 4.720832 -0.000000 4.795602
RightHandThumb1 -24.326973 -0.000000 -32.862282
LeftUpLeg -1.344301 11.319646 4.976666
LeftLeg -4.074370 -0.000000 0.000000
LeftFoot -9.882251 26.435908 -15.214788
LeftToeBase -9.919220 -0.000000 0.000000
RightUpLeg -26.790232 -8.018264 9.319811
RightLeg 18.994696 -0.000000 -0.000000
RightFoot -4.869164 -20.426505 10.041748
RightToeBase -1.609897 -0.000000 0.000000
151
root -1.526184 32.833928 0.307482 14.703296 -34.481591 -6.549211
Spine -4.484076 -6.366837 1.603205
Head 22.498465 -25.525884 6.876111
LeftShoulder -25.078995 50.189798 7.795998
LeftArm 44.770709 -21.136186 -79.472688
LeftForeArm 1.112608 0.000000 1.039040
LeftHand 2.326018 0.000000 1.342360
LeftHandThumb1 -26.253704 0.000000 33.147579
RightShoulder -8.019056 -1.464155 -19.385091
RightArm 21.777544 -4.494989 76.168291
RightForeArm -3.953267 -0.000000 3.611942
RightHand 4.589812 -0.000000 5.286719
RightHandThumb1 -24.326973 -0.000000 -32.862282
LeftUpLeg -1.077014 11.833147 4.946766
LeftLeg -3.944304 -0.000000 0.000000
LeftFoot -10.180854 26.748259 -15.368472
LeftToeBase -9.820591 -0.000000 0.000000
RightUpLeg -26.908867 -8.182032 9.634323
RightLeg 19.403373 -0.000000 -0.000000
RightFoot -5.147303 -19.979475 10.027742
RightToeBase -1.938010 -0.000000 0.000000
152
root -1.655232 32.814193 0.344563 14.716982 -35.493502 -6.502191
Spine -4.523746 -6.362012 1.459030
Head 22.691534 -25.008810 6.723681
LeftShoulder -25.107210 50.276097 7.417582
LeftArm 44.590372 -19.969289 -79.824632
LeftForeArm 0.845961 -0.000000 1.013291
LeftHand 2.259631 -0.000000 0.492928
LeftHandThumb1 -26.253704 0.000000 33.147579
RightShoulder -7.961065 -1.711998 -19.204982
RightArm 21.754388 -5.132550 77.197955
RightForeArm -3.468726 -0.000000 3.591342
RightHand 4.627658 -0.000000 5.817200
RightHandThumb1 -24.326973 -0.000000 -32.862282
LeftUpLeg -0.821079 12.268517 4.892496
LeftLeg -3.768619 -0.000000 0.000000
LeftFoot -10.542343 27.155166 -15.686843
LeftToeBase -9.507175 -0.000000 0.000000
RightUpLeg -26.916369 -8.155091 9.808383
RightLeg 19.676625 -0.000000 -0.000000
RightFoot -5.339148 -19.381254 9.822631
RightToeBase -2.219684 -0.000000 0.000000
153
root -1.788633 32.796407 0.386157 14.743051 -36.534072 -6.495054
Spine -4.577773 -6.329880 1.363782
Head 22.947610 -24.497432 6.512327
LeftShoulder -25.142833 50.308157 7.029894
LeftArm 44.418153 -18.726659 -80.106571
LeftForeArm 0.581358 -0.000000 0.942064
LeftHand 2.100865 -0.000000 -0.388063
LeftHandThumb1 -26.253704 0.000000 33.147579
RightShoulder -7.880846 -1.986193 -19.042635
RightArm 21.730986 -5.597124 78.261255
RightForeArm -3.324571 0.000000 3.554357
RightHand 4.542137 0.000000 6.469433
RightHandThumb1 -24.326973 -0.000000 -32.862282
LeftUpLeg -0.571294 12.837402 4.851716
LeftLeg -3.529324 -0.000000 0.000000
LeftFoot -10.894705 27.478803 -15.913830
LeftToeBase -9.318725 -0.000000 0.000000
RightUpLeg -26.793684 -7.927021 9.903479
RightLeg 19.848126 -0.000000 -0.000000
RightFoot -5.473772 -18.649903 9.515526
RightToeBase -2.016880 -0.000000 0.000000
154
root -1.929230 32.778607 0.434832 14.709718 -37.487298 -6.476247
Spine -4.611862 -6.396534 1.296928
Head 23.289113 -23.976312 6.292161
LeftShoulder -25.209762 50.335102 6.630292
LeftArm 44.274602 -17.410732 -80.346140
LeftForeArm 0.049408 -0.000000 0.865584
LeftHand 2.134555 0.000000 -1.387766
LeftHandThumb1 -26.253704 0.000000 33.147579
RightShoulder -7.801419 -2.281395 -18.883719
RightArm 21.649934 -6.471946 79.112255
RightForeArm -3.068515 0.000000 3.710901
RightHand 4.255082 -0.000000 7.141801
RightHandThumb1 -24.326973 -0.000000 -32.862282
LeftUpLeg -0.275640 13.200430 4.835886
LeftLeg -3.262081 -0.000000 0.000000
LeftFoot -11.308085 27.899158 -16.264550
LeftToeBase -9.178415 -0.000000 0.000000
RightUpLeg -26.515802 -7.733540 9.936278
RightLeg 19.919984 -0.000000 -0.000000
RightFoot -5.738698 -17.820270 9.369154
RightToeBase -1.765317 -0.000000 0.000000
